<?xml version="1.0" encoding="UTF-8" standalone="no"?>
<svg
   xmlns:dc="http://purl.org/dc/elements/1.1/"
   xmlns:cc="http://creativecommons.org/ns#"
   xmlns:rdf="http://www.w3.org/1999/02/22-rdf-syntax-ns#"
   xmlns:svg="http://www.w3.org/2000/svg"
   xmlns="http://www.w3.org/2000/svg"
   xmlns:sodipodi="http://sodipodi.sourceforge.net/DTD/sodipodi-0.dtd"
   xmlns:inkscape="http://www.inkscape.org/namespaces/inkscape"
   version="1.0"
   width="300.000000pt"
   height="278.000000pt"
   viewBox="0 0 300.000000 278.000000"
   preserveAspectRatio="xMidYMid meet"
   id="svg2"
   inkscape:version="0.91 r13725"
   sodipodi:docname="cMwdNq301.svg">
  <defs
     id="defs34" />
  <sodipodi:namedview
     pagecolor="#ffffff"
     bordercolor="#666666"
     borderopacity="1"
     objecttolerance="10"
     gridtolerance="10"
     guidetolerance="10"
     inkscape:pageopacity="0"
     inkscape:pageshadow="2"
     inkscape:window-width="1366"
     inkscape:window-height="742"
     id="namedview32"
     showgrid="false"
     inkscape:zoom="2.1647515"
     inkscape:cx="160.03509"
     inkscape:cy="186.53858"
     inkscape:window-x="0"
     inkscape:window-y="0"
     inkscape:window-maximized="1"
     inkscape:current-layer="svg2" />
  <metadata
     id="metadata4">
Created by potrace 1.10, written by Peter Selinger 2001-2011
<rdf:RDF>
  <cc:Work
     rdf:about="">
    <dc:format>image/svg+xml</dc:format>
    <dc:type
       rdf:resource="http://purl.org/dc/dcmitype/StillImage" />
  </cc:Work>
</rdf:RDF>
</metadata>
  <path
     style="fill:#000000;stroke:none"
     inkscape:connector-curvature="0"
     id="path8"
     d="m 66.309209,23.504427 c -1.5,6.8 -2.7,12.6 -2.7,12.9 0,0.3 2.6,0.9 5.8,1.2 3.1,0.4 7.2,0.9 9,1.3 2.6,0.5 3.2,0.3 3.2,-1 0,-0.9 0.1,-1.6 0.3,-1.6 0.1,0 5.4,0.7 11.7,1.5 7.000001,0.8 11.600001,1 11.800001,0.4 0.4,-1.1 2.3,-1.2 2.1,-0.2 -0.1,0.5 -0.1,1 0,1.3 0.1,0.3 0.4,2.8 0.6,5.6 0.7,10 6,17.9 14.3,21.5 5.3,2.3 8.4,2.4 12.8,0.3 1.9,-0.9 3.7,-1.4 4,-1.1 0.3,0.2 0.1,2 -0.5,3.8 l -0.9,3.4 -0.2,-3.5 -0.2,-3.5 -0.8,3.4 c -0.5,1.9 -1.5,3.8 -2.4,4.3 -0.9,0.5 -1.6,2.2 -1.6,3.9 0,2.8 -3.7,7.9 -5.7,7.9 -0.5,0 -1.4,-1.9 -2,-4.3 -1.9,-6.8 -8,-16.1 -12.6,-19 -6.5,-4.3 -10.1,-3.7 -15.800001,2.3 -5.5,5.8 -6.8,5.8 -10.5,-0.6 -1.4,-2.4 -3,-4.4 -3.6,-4.4 -2.1,0 -4.8,2.2 -4.8,3.9 0,2.5 8.4,10.1 11.2,10.1 1.2,0 3.1,0.8 4.2,1.9 1.2,1 7.500001,5.2 14.100001,9.3 32.9,20.400003 42,26.200003 42.5,26.900003 1.3,1.9 29.6,17.8 35.1,19.8 3.5,1.3 12.3,4.5 19.4,7.1 26.8,9.9 45,16.3 46.3,16.3 0.6,0 1.2,0.3 1.2,0.7 0,0.4 2,1.3 4.5,2 2.5,0.7 4.5,1.6 4.5,1.9 0,0.4 -5.1,3.2 -11.2,6.1 -27.2,12.9 -54.6,26.8 -54.1,27.4 1.1,1.1 -1,0.7 -11.7,-2.3 -5.8,-1.6 -12.4,-3.2 -14.6,-3.6 -2.3,-0.3 -7.5,-2.5 -11.6,-4.9 -4.1,-2.3 -12.3,-6.6 -18.1,-9.4 -7.6,-3.7 -12.4,-6.9 -17,-11.2 -3.6,-3.3 -8,-6.6 -9.8,-7.4 -1.9,-0.8 -4.9,-3 -6.7,-5 -2.8,-3.2 -3.5,-3.4 -5.2,-2.4 -2.400001,1.5 -2.500001,2.4 -0.5,3.2 1.2,0.4 1.3,1.1 0.4,3.2 -0.900001,2.5 -0.600001,3.2 3.2,7 4.2,4.3 4.4,5.3 2.4,10.7 -0.9,2.3 4.3,7.6 10.6,10.8 6.6,3.3 7,4.4 3.7,9.7 -2.1,3.4 -2.1,3.5 -0.3,4.8 1,0.8 2.9,1.4 4.2,1.4 1.5,0 2.7,0.8 3.2,2.2 1.4,3.7 5.3,6.6 10.4,7.9 3.6,0.9 5.1,1.9 6.3,4 0.8,1.6 2.8,3.6 4.5,4.5 2.3,1.1 3,2.1 2.6,3.5 -0.3,1.3 0.2,2.8 1.4,4 3.3,3.3 5.3,10.9 2.9,10.9 -0.9,0 -2.2,-2.1 -6.9,-10.9 -1.8,-3.3 -2.5,-3.7 -7.2,-4.5 -3.5,-0.6 -3.9,-0.9 -3.9,-3.5 0,-4.2 -2.8,-6.1 -8.8,-6.1 -5.9,0 -7.7,-1.4 -9.2,-6.9 -1.2,-4.7 -3.4,-6.7 -9.4,-8.7 -4.1,-1.4 -5.1,-2.3 -6.8,-6 -1.8,-4.2 -2.1,-4.4 -6.200001,-4.4 -6.2,0 -7.3,-1.7 -4.7,-7.4 l 2,-4.5 -2.1,-2.7 c -2,-2.4 -2.5,-2.6 -7.4,-2 -6.4,0.7 -8.4,0.1 -8.4,-2.8 0,-3.1 1.1,-4.3 4.8,-5.1 4.2,-0.9 5.1,-3.1 2.4,-5.8 -2.1,-2.1 -2.9,-2.2 -14.6,-1.7 -5.4,0.2 -6.2,0 -8.3,-2.4 -3,-3.5 -2.9,-6.1 0.3,-9.2 2.1,-2.2 3.2,-2.5 6.7,-2.1 2.3,0.2 6.8,1.4 9.9,2.5 6,2.3 9.8,2.1 7.7,-0.4 -0.6,-0.7 -2.6,-1.8 -4.4,-2.4 -4.2,-1.4 -6.6,-6.3 -4.3,-8.6 1.4,-1.4 2.2,-1 7.6,3.5 3.3,2.8 6.3,5.5 6.7,6.1 0.3,0.5 1.1,1 1.7,1 0.6,0 -1.7,-2.9 -5,-6.5 -6.5,-6.9 -9.5,-13.3 -7.6,-16.3 2.6,-4 5.9,-1.2 11,9.3 1.9,3.8 3.4,6.1 3.4,5.2 0,-3.4 1.7,-0.7 3.4,5.2 0.9,3.2 2.300001,6.5 3.200001,7.2 1.3,1.1 1.5,0.9 1,-1.2 -1.1,-4.8 -4.500001,-26.9 -7.100001,-45.900003 -1.5,-10.7 -3.1,-19.9 -3.6,-20.4 -0.5,-0.5 -0.6,0.6 -0.3,2.5 0.2,1.9 1.6,11 2.9,20.2 1.4,9.200003 2.5,17.200003 2.5,17.600003 0,0.5 -0.9,1.1 -2,1.4 -1.3,0.3 -2,1.4 -2,3 0,2.7 2.4,5.4 3.4,3.9 0.3,-0.6 -0.1,-1.2 -0.9,-1.6 -1.7,-0.6 -2.1,-5 -0.4,-4.4 1.5,0.5 3.6,7 4.3,13.2 0.5,4.4 0.4,4.6 -0.4,1.9 -0.6,-1.8 -1.9,-3.8 -2.9,-4.5 -1,-0.7 -2.6,-2.9 -3.6,-4.8 -0.9,-1.9 -2.8,-4.9 -4.1,-6.7 -1.9,-2.5 -2.1,-3.2 -0.9,-3.7 1.9,-0.7 1.9,-4 0,-5.6 -2,-1.6 -3.8,-0.2 -3.2,2.6 0.3,1.8 0,2.4 -1.2,2.4 -2.3,0 -4.1,2 -4.1,4.3 0,1.8 -0.2,1.7 -1.8,-0.3 -1.9,-2.3 -4.2,-2.1 -4.2,0.4 0,1.4 6,7.4 6,6 0.1,-1.1 3,2.6 3,3.8 0,0.4 -0.9,0.3 -1.9,-0.4 -1.5,-0.9 -2.3,-0.9 -3.5,0.1 -3.6,3 -0.2,10.4 5.4,11.6 1.7,0.4 3,1.1 3,1.5 0,1 -6.2,-0.8 -12.3,-3.4 -9.7,-4.2 -18.8,4.9 -12.7,12.7 2.6,3.3 7.6,4.3 13.5,2.8 3.6,-0.9 5.2,-0.8 8.1,0.4 4.1,1.7 4.1,3.5 0,4.6 -4,1.1 -5.6,2.8 -5.6,5.9 0,4.2 2.2,5.4 8.1,4.6 4.1,-0.6 5.5,-0.4 7,1 2.3,2.1 2.4,3.3 0.4,7 -3,5.8 -1.4,8.4 5.3,8.4 3.900001,0 4.400001,0.3 5.700001,3.3 1.5,3.7 4,6.2 7.1,7.1 1.4,0.4 3,2.6 4.4,5.9 3.3,7.7 3.6,11.5 1,16.9 -5.4,11.6 -25.600001,30.6 -43.900001,41.2 l -6.4,3.7 -9.1,-1.1 c -5,-0.6 -10.2,-1.3 -11.6,-1.5 -5,-0.7 -16.5,-1.5 -15.5,-1 0.9,0.4 30.2,4.4 32.9,4.5 2.7,0.1 -13.7,6.3 -21.4,8.2 -9.5,2.2 -11.7,3.2 -5,2.2 12.5,-1.8 33.4,-10.9 47,-20.5 10,-7 29.000001,-26 32.900001,-32.9 3.6,-6.4 3.8,-10 1.1,-17.7 -1.1,-3.1 -1.7,-5.9 -1.4,-6.2 0.9,-0.9 3.3,3 4.4,7.1 1.5,5.4 3.4,6.8 9.1,6.8 6.6,0 9,1.3 8.7,4.8 -0.3,3.9 0.8,5.2 4.5,5.2 3.9,0 5.3,0.8 6.7,4 0.6,1.4 2.3,4.5 3.9,7 3.5,5.4 3.8,10 1.2,17.1 -3,7.8 -9,14.8 -16.9,19.9 -3.9,2.5 -7.1,4.9 -7.1,5.4 -0.1,0.5 0.9,0.1 2.2,-0.8 1.2,-0.9 3.8,-2.5 5.8,-3.5 4.9,-2.7 13.1,-11.9 15.9,-17.8 1.2,-2.6 2.5,-7.4 2.8,-10.5 0.2,-3.2 0.9,-5.8 1.3,-5.8 0.5,0 0.9,-1.8 0.9,-3.9 0,-2.7 -0.8,-4.9 -2.5,-6.9 -1.4,-1.7 -2.5,-4.1 -2.5,-5.6 0,-1.8 -0.8,-3 -3,-4.1 -1.6,-0.8 -3.6,-2.8 -4.4,-4.3 -1.1,-2.2 -2.8,-3.2 -7.5,-4.5 -5.2,-1.5 -6.3,-2.2 -8.3,-5.6 -1.7,-3 -3.1,-4.1 -5.5,-4.6 -3.6,-0.6 -4.1,-2.1 -1.8,-5.1 3.4,-4.4 1.6,-7.4 -7.1,-11.7 -7,-3.6 -7.7,-4.6 -6.9,-11 0.7,-5.3 0.6,-5.4 -3,-8.5 -3.4,-2.7 -3.7,-3.4 -3.1,-6.5 0.4,-2.1 0.2,-3.8 -0.4,-4.2 -0.6,-0.3 -0.8,-1 -0.6,-1.4 0.3,-0.4 6.8,5.5 14.6,13.1 7.7,7.6 17.1,15.8 20.8,18.2 16.9,11 64.4,32.6 71.4,32.6 4,0 0.7,-7.3 -7,-15.2 -2,-2.1 -3.3,-4.1 -2.9,-4.4 0.6,-0.6 5.3,4.2 15.9,16.1 1.9,2.2 10.1,12.3 18.3,22.5 15,18.8 30.5,36.4 31.3,35.5 0.3,-0.3 -1.9,-3.1 -4.9,-6.2 l -5.4,-5.8 7.5,-0.6 7.5,-0.5 -8.5,-0.2 -8.5,-0.2 -16.5,-20.7 c -9.1,-11.4 -20.6,-25.3 -25.7,-30.9 l -9.1,-10.1 11.1,-5.3 c 24,-11.4 51.7,-25.4 51.7,-26 0,-1 -8.6,-4.5 -25.7,-10.5 -13.4,-4.8 -16.1,-6.7 -12.7,-9.2 2.1,-1.5 1.4,-2.6 -1,-1.7 -1.2,0.5 -1.6,1.4 -1.3,3.1 0.3,1.5 0,2.3 -0.7,2 -0.6,-0.2 -4.1,-1.4 -7.8,-2.7 -6.6,-2.3 -6.6,-2.3 -7,-6.4 -0.3,-2.3 -0.4,-4.2 -0.3,-4.4 0.1,-0.1 3.5,1.6 7.5,3.8 4,2.2 7.5,3.8 7.7,3.6 0.4,-0.3 -3.1,-2.4 -12,-7.1 -2.3,-1.2 -3.7,-2.7 -3.8,-4 0,-1.1 -0.2,-3.1 -0.4,-4.5 -0.2,-1.4 -1.3,-12.2 -2.5,-24.000003 -1.2,-11.8 -2.3,-22.6 -2.5,-24 -0.2,-1.4 -0.4,-3.1 -0.4,-3.8 -0.1,-0.8 -0.7,-1.2 -1.5,-1 -0.8,0.2 -10.4,8.2 -21.4,18 -11,9.7 -20.4,17.300003 -20.8,16.800003 -1.3,-1.1 -10.4,-5.000003 -10.4,-4.400003 0,0.3 2.5,1.600003 5.5,3.000003 l 5.4,2.5 -3.1,2.8 -3.2,2.8 -4.2,-2.6 c -4.2,-2.5 -6.8,-5.6 -3.8,-4.4 0.9,0.3 1.4,-0.2 1.4,-1.5 0,-1.1 0.8,-3.400003 1.7,-5.100003 1.5,-2.5 2.8,-3.2 8.5,-4.5 24.7,-5.6 26,-21.5 2.4,-29.6 -2.8,-0.9 -5.7,-1.5 -6.5,-1.2 -2.5,0.8 -3.1,-2.1 -1,-4.4 l 2.1,-2.2 2,2 c 1.9,1.9 2.2,2 3.3,0.5 0.7,-1 1.7,-1.7 2.3,-1.7 0.7,0 1.9,-1.1 2.8,-2.5 1.3,-2 1.4,-3.1 0.6,-4.9 -0.8,-1.9 -0.5,-3.3 1.7,-7.8 2.3,-4.5 3.1,-5.4 4.5,-4.6 2.2,1.2 3.9,0.1 2.7,-1.9 -0.4,-0.9 -0.6,-2.4 -0.4,-3.4 0.4,-1.5 0,-1.9 -2.2,-1.9 -1.5,0 -4,-1.1 -5.7,-2.5 -1.6,-1.4 -3.6,-2.5 -4.5,-2.5 -1.1,0 -1.3,-0.3 -0.5,-1.3 2.1,-2.5 -0.3,-4 -5.8,-3.5 -3.5,0.4 -4.8,0.2 -4.1,-0.5 1.4,-1.4 -0.5,-3.7 -3,-3.7 -3.1,0 -5.9,3.6 -5.9,7.5 0,2.6 -0.3,3.3 -1.5,2.9 -1,-0.4 -1.5,0 -1.5,1.5 0,1.6 0.8,2.3 2.9,2.7 2.2,0.5 2.7,1 2.4,2.5 -0.5,1.8 -0.2,1.9 3.6,1.3 2.9,-0.5 4.1,-0.3 4.1,0.6 0,0.8 1.2,1.1 3.4,0.8 3,-0.3 3.3,-0.2 2.5,1.3 -1.1,2.1 -1.2,7.9 -0.1,9.5 0.4,0.6 1.8,1.1 3.2,1 2.1,-0.1 2.5,0.4 2.8,3 0.4,4.2 -1.9,6.1 -5.4,4.5 -1.4,-0.6 -2.2,-1.6 -1.9,-2.1 0.3,-0.6 0.2,-1 -0.4,-1 -0.5,0 -1.2,0.8 -1.6,1.7 -0.5,1.8 -7.1,9.3 -8,9.3 -0.3,0 -0.5,-0.6 -0.5,-1.3 0,-0.6 -2.7,-2 -6,-3.1 -3.3,-1 -6.2,-2.1 -6.4,-2.5 -0.7,-1 4.9,-14.4 6.1,-14.8 0.6,-0.2 1,0.4 0.9,1.3 0,0.9 0.5,1.8 1.2,2 0.7,0.1 0.8,0 0.2,-0.3 -1.7,-0.8 -1.1,-2.6 0.6,-1.9 1.7,0.7 4.4,-0.9 4.4,-2.6 0,-0.6 -0.6,-0.5 -1.5,0.2 -1.7,1.4 -5.5,0.4 -5.5,-1.6 0,-2 2.8,-1.7 3.3,0.3 0.4,1.4 0.5,1.3 0.6,-0.4 0,-1.2 -0.3,-2.4 -0.9,-2.8 -0.5,-0.3 -0.6,-1.3 -0.3,-2.2 0.4,-1.1 0.3,-1.4 -0.6,-0.9 -0.7,0.5 -1,1.4 -0.7,2.1 0.3,1 -1,1.4 -5.2,1.7 -3.1,0.2 -5.9,0 -6.2,-0.4 -0.3,-0.4 -4.6,-1.8 -9.5,-3.1 -6.7,-1.8 -8.9,-2.8 -8.7,-3.9 0.2,-1.2 -2.4,-2.2 -10.900001,-4.3 -9.6,-2.4 -11,-3 -10.6,-4.6 0.4,-1.6 -0.8,-2.3 -7.7,-4.4 -4.5,-1.4 -8.7,-2.5 -9.2,-2.5 -0.6,0 -2.2,5.5 -3.7,12.2 z m 13,-8.5 c 5.2,1.3 6.3,1.9 5.8,3.2 -0.5,1.1 -4.3,17.9 -4.5,19.7 0,0.1 -1.9,-0.2 -4.2,-0.7 -2.4,-0.4 -6,-0.8 -8.2,-0.9 -2.6,0 -3.7,-0.4 -3.3,-1.3 0.2,-0.6 1.5,-6.1 2.7,-12 1.9,-8.5 2.7,-10.7 3.8,-10.2 0.8,0.3 4.4,1.3 7.9,2.2 z m 66.600001,3.2 c -0.3,2 0,2.1 5.2,1.5 3.6,-0.5 5.5,-0.3 5.5,0.4 0,0.6 -0.5,1.2 -1.2,1.4 -1.7,0.6 0,2.8 2.1,2.8 1,0 2.8,1.1 4.1,2.5 1.3,1.4 3.5,2.5 4.9,2.5 2.2,0 2.6,0.5 2.7,3 0.1,2.5 -0.1,2.8 -1.7,2 -2.3,-1.3 -2.9,-1.2 -2.9,0 0,0.6 -0.9,3 -2.1,5.5 -1.8,3.9 -2.5,4.5 -5.1,4.5 -2.9,0 -3,-0.1 -2.5,-3.8 0.3,-2 0.8,-4.8 1.2,-6.1 0.8,-2.3 0.7,-2.4 -2.8,-1.7 -2.9,0.5 -3.7,0.4 -3.7,-0.8 0,-1.1 -0.8,-1.3 -3.5,-0.9 -2.8,0.4 -3.5,0.2 -3.5,-1 0,-1 -1,-1.7 -2.7,-1.9 -1.4,-0.2 -2.8,-0.9 -3.1,-1.6 -0.2,-0.7 0.2,-1 1.2,-0.6 1.3,0.5 1.6,-0.2 1.6,-3.4 0,-3.1 0.5,-4.5 2.2,-5.6 2.8,-2 4.4,-1.5 4.1,1.3 z m -50.800001,5.5 c 3.3,0.8 7.300001,1.7 8.900001,2.1 2.7,0.6 2.8,0.8 2.3,5.1 -0.2,2.5 -0.9,5 -1.5,5.6 -1,1 -20.800001,-0.5 -22.000001,-1.6 -0.5,-0.6 1.6,-11.3 2.5,-12.9 0.3,-0.4 1.2,-0.6 2.1,-0.3 1,0.3 4.4,1.2 7.7,2 z m 20.300001,8.1 c 1,0.7 -1.3,3.5 -2.8,3.5 -1,0 -2,0.5 -2.2,1.1 -0.2,0.5 -1.1,0.7 -2.1,0.3 -1.1,-0.4 -1.6,-1.3 -1.3,-2.1 0.3,-0.8 0.6,-2.3 0.6,-3.3 0,-1.6 0.4,-1.7 3.8,-0.7 2,0.6 3.8,1.2 4,1.2 z m 2.9,3.5 c -0.6,2.8 -0.4,3 2.1,2.9 1.7,-0.1 2,-0.3 1,-0.6 -2,-0.5 -2.5,-4.3 -0.5,-4.3 2.6,0 3.8,1.7 3.1,4.4 -0.5,2 -1.1,2.5 -2.5,2.1 -1.1,-0.3 -2.8,-0.7 -3.8,-1 -1.1,-0.3 -2.2,-0.2 -2.5,0.3 -0.3,0.5 1.5,1.2 4.1,1.6 2.9,0.4 4.9,0.2 5.3,-0.4 0.4,-0.6 3,-1.3 5.9,-1.5 4.2,-0.4 5.1,-0.2 4.3,0.8 -0.5,0.6 -2.2,4.1 -3.6,7.5 -3.2,7.6 -2.8,8.4 5,10.8 4.5,1.5 5.2,2 4.4,3.5 -2.2,4 -13.2,4.9 -18.5,1.5 -3.9,-2.6 -7.4,-9.6 -8.1,-16.4 -0.6,-5.6 -0.9,-6.2 -3,-6.2 -1.2,0 -2.6,-0.5 -2.9,-1 -0.3,-0.6 0.3,-1 1.4,-1 1.2,0 2.1,-0.5 2.1,-1 0,-0.6 0.8,-1 1.9,-1 1,0 2.1,-0.9 2.4,-2 0.9,-3.3 3,-2.4 2.4,1 z m 17.3,1.2 c 0,0.3 -2.4,0.8 -5.4,1 -3.3,0.2 -5.2,-0.1 -5,-0.7 0.5,-1.1 10.4,-1.4 10.4,-0.3 z m -23,9.3 c 0,7.8 3.8,14.5 10.5,18.6 1.7,1.1 2.5,1.9 1.9,1.9 -0.7,0 -3.3,-1.5 -6,-3.3 -5.7,-3.8 -8.6,-9 -9.2,-16.4 -0.4,-4.4 -0.2,-5.3 1.2,-5.3 1.2,0 1.6,1 1.6,4.5 z m 42,9 c 0.7,0.8 0.8,1.5 0.2,1.5 -0.5,0 -1.5,-0.7 -2.2,-1.5 -0.7,-0.8 -0.8,-1.5 -0.2,-1.5 0.5,0 1.5,0.7 2.2,1.5 z m -70.000001,8.4 c 1.4,3.6 4.5,6.4 8.8,8.1 2,0.8 3.2,1.9 3.2,3.2 0,1.6 -0.3,1.7 -2,0.8 -1.1,-0.6 -2,-1.5 -2,-2 0,-0.6 -1,-1 -2.2,-1 -2.8,0 -7,-2.7 -9.8,-6.3 -1.8,-2.2 -2,-3 -1,-4.2 1.9,-2.3 3.6,-1.8 5,1.4 z m 28.500001,0.6 c 2.1,1.5 4.9,5.6 7.3,10.3 4.3,8.6 5.2,11.2 5.6,16 0.2,1.8 0.5,3.4 0.7,3.5 2.7,2.1 6.9,4.7 7.5,4.7 0.5,0 -0.8,-1.2 -2.9,-2.7 -4.7,-3.4 -5.7,-6.7 -2.8,-9.6 1.7,-1.8 2.1,-1.9 2.1,-0.5 0,0.9 -0.7,1.8 -1.5,2.2 -0.8,0.3 -1.5,1.1 -1.5,1.8 0,1 0.2,1 0.8,0.1 0.4,-0.6 2.5,-1.8 4.7,-2.6 2.2,-0.8 4.7,-1.7 5.6,-2.1 1.4,-0.6 1.5,-0.1 1.2,3.3 -0.4,3.8 -0.2,4.1 2,4.1 3.4,0 3.8,0.9 2,4.4 -3.5,7.000003 -3.6,7.000003 -12.9,1.3 l -8.4,-5.2 -2.9,-9 c -4.8,-15.2 -8.4,-20.5 -13.9,-20.5 -2.7,0 -8.200001,5 -8.200001,7.4 0,1.3 -0.3,1.4 -1.9,0.4 -1.9,-1.1 -1.9,-1.3 -0.3,-4.1 4,-6.9 11.200001,-8.2 17.700001,-3.2 z m 33.5,1.5 c -1,5.2 -10.1,17.7 -12.2,16.4 -0.4,-0.3 -0.8,0.2 -0.8,1 0,2.4 2.6,0.8 6.6,-4.1 l 3.8,-4.6 1.8,2.3 c 1,1.2 1.8,2.6 1.8,3 0,0.9 -15.2,7.2 -15.8,6.5 -0.3,-0.3 0,-1.6 0.6,-3 0.7,-1.4 1.2,-3.6 1.2,-4.9 0,-1.3 0.9,-3.1 2,-4.1 2.4,-2.2 2.5,-1.8 0.4,3 -0.8,2 -1.3,3.9 -1.1,4.1 0.6,0.6 4.6,-8.9 5.3,-12.5 0.6,-3.1 2.8,-4.6 4.7,-3.4 0.7,0.4 0.8,0 0.4,-1.1 -0.8,-2 0,-3.9 1.2,-3.1 0.5,0.2 0.5,2.3 0.1,4.5 z m -4.4,-1.3 c -1,1 -1.9,-0.5 -1,-1.8 0.6,-1.1 0.8,-1.1 1.2,0 0.2,0.7 0.1,1.5 -0.2,1.8 z m 15.6,0.3 c 10.7,4 16,10.8 13.1,16.9 -1.6,3.1 -10.2,8.1 -16.5,9.5 -2.2,0.5 -2.7,0.3 -2.5,-1.4 0.1,-1.5 1.1,-2.1 3.7,-2.5 6.1,-1 12.4,-3.9 13.7,-6.5 2.4,-4.9 -4.2,-12.5 -12.9,-14.6 -2.7,-0.6 -2.8,-0.5 -2.8,3.2 0,5.6 -3,15.8 -4.3,14.5 -2.2,-2.2 -3,-1 -0.9,1.2 2.3,2.4 2.9,6.1 1.3,7.2 -1.4,0.8 -9.1,-0.6 -9.1,-1.6 0,-0.5 1.2,-0.9 2.8,-1 l 2.7,-0.1 -2.7,-1 c -3.9,-1.4 -3.6,-3.2 0.3,-2.4 2.6,0.5 2.9,0.4 2,-0.8 -0.7,-0.8 -2.2,-1.2 -3.4,-1 -1.2,0.2 -0.8,-0.1 1,-0.8 5.1,-2.1 5.7,-3.1 3.8,-6.8 -1.8,-3.5 -1.8,-3.5 2.8,-6.1 0.9,-0.5 1.7,-1.6 1.7,-2.3 0,-0.8 -0.8,-2 -1.7,-2.7 -1.6,-1.3 -1.7,-1.2 -0.4,0.4 1.2,1.5 1.1,2 -0.4,3.7 -2.2,2.5 -3.9,2.6 -2.6,0.2 0.6,-0.9 1.2,-2.9 1.6,-4.5 0.7,-3.3 2.4,-3.4 9.7,-0.7 z m -46.7,3.5 c 2.4,2.5 4.2,6.3 6.7,13.8 l 3.3,10.3 -7.2,-4.5 c -3.9,-2.5 -7,-4.8 -6.7,-5.2 0.2,-0.4 -0.3,-1 -1.2,-1.3 -1,-0.4 -1.3,-0.2 -0.9,0.7 0.4,0.6 0.1,0.5 -0.7,-0.3 -0.7,-0.8 -2.5,-2.1 -4,-2.7 -3.200001,-1.4 -3.600001,-3.9 -1.300001,-8.3 1.600001,-3.1 5.100001,-6 7.400001,-6 0.7,0 2.8,1.6 4.6,3.5 z m 20.3,-0.8 c -1,0.2 -2.6,0.2 -3.5,0 -1,-0.3 -0.2,-0.5 1.7,-0.5 1.9,0 2.7,0.2 1.8,0.5 z m 33.2,4.2 c 3.2,2.3 4.8,6.6 3.4,8.9 -1.5,2.4 -5.6,4.2 -11.7,5.2 -2.8,0.4 -5.3,0.7 -5.4,0.6 -0.1,0 0.7,-2.6 1.7,-5.6 1.1,-3 1.9,-7.4 2,-9.8 l 0,-4.2 3.8,1.5 c 2,0.9 4.8,2.4 6.2,3.4 z m 35.5,12.2 c 0.8,7.4 1.7,17.000003 2.1,21.400003 0.3,4.4 1.2,13.4 1.9,20 0.7,6.6 1.2,12.1 1.1,12.3 -0.5,0.4 -26,-9 -27.6,-10.2 -0.8,-0.6 -2.4,-1.6 -3.5,-2.2 -1.1,-0.6 -6.8,-3.9 -12.7,-7.3 l -10.7,-6.2 12,-10.7 c 21.7,-19.300003 35.4,-31.100003 35.7,-30.700003 0.2,0.1 0.9,6.3 1.7,13.6 z M 87.409209,111.00443 c 0.2,1.1 -0.3,2.3 -1,2.5 -0.9,0.4 -1.4,-0.4 -1.5,-2.4 -0.3,-3.4 2,-3.5 2.5,-0.1 z m -10.3,8.4 c 0.9,1.7 1.4,3.3 1.2,3.5 -0.8,0.8 -4.7,-4.8 -4.1,-5.7 0.8,-1.4 1.2,-1.1 2.9,2.2 z m 23.200001,20.1 c -0.3,0.8 -0.600001,0.5 -0.600001,-0.6 -0.1,-1.1 0.2,-1.7 0.500001,-1.3 0.3,0.3 0.4,1.2 0.1,1.9 z m 19.9,21.8 c 5.8,5.4 10,8.2 18.2,12.2 5.9,2.8 13.8,7 17.6,9.2 3.8,2.2 9.4,4.5 12.5,5.2 3.1,0.7 10,2.4 15.5,3.9 5.4,1.5 10.7,2.4 11.7,2.2 1.3,-0.4 3,0.8 5.7,4.1 8.3,10.1 9.2,12.8 4,11.7 -10.9,-2.4 -61,-26.2 -70.9,-33.7 -6.7,-5.1 -22.9,-20 -22.9,-21.1 0,-1.4 1.1,-0.6 8.6,6.3 z" />
  <path
     style="fill:#000000;stroke:none"
     inkscape:connector-curvature="0"
     id="path10"
     d="m 108.70921,82.704427 c 1.4,1.2 9,4.6 8.4,3.7 -0.3,-0.6 -2.2,-1.8 -4.2,-2.6 -3.5,-1.5 -5.1,-1.9 -4.2,-1.1 z" />
  <path
     style="fill:#000000;stroke:none"
     inkscape:connector-curvature="0"
     id="path12"
     d="m 146.20921,36.204427 c -0.3,0.4 0.6,0.6 1.9,0.3 1.4,-0.2 2.5,-0.6 2.5,-0.8 0,-0.8 -3.9,-0.4 -4.4,0.5 z" />
  <path
     style="fill:#000000;stroke:none"
     inkscape:connector-curvature="0"
     id="path14"
     d="m 145.10921,39.304427 c 0.3,0.5 1.6,1.5 2.8,2.2 2,1 2.1,1 0.8,-0.6 -1.2,-1.4 -1.2,-1.6 0.3,-1 0.9,0.3 1.6,0.1 1.6,-0.5 0,-0.6 -1.4,-1.1 -3.1,-1.1 -1.7,0 -2.8,0.4 -2.4,1 z" />
  <path
     style="fill:#000000;stroke:none"
     inkscape:connector-curvature="0"
     id="path16"
     d="m 135.60921,47.804427 c 0,2.1 2.9,8.9 3.5,8.3 0.3,-0.3 -0.2,-2.2 -1,-4.3 -0.9,-2 -1.5,-3.8 -1.3,-4 0.2,-0.2 2.7,0 5.6,0.2 l 5.3,0.6 -4,1.8 c -2.3,1 -4.1,2.3 -4.1,3 0,0.8 0.7,0.6 1.8,-0.4 1,-1 2.5,-1.7 3.3,-1.7 0.9,0.1 0.3,1 -1.4,2.5 -1.7,1.5 -2.2,2.5 -1.4,2.5 1.7,0 5.3,-3.8 4.4,-4.7 -0.4,-0.3 0.2,-1.2 1.3,-2 1.1,-0.8 2,-1.7 2,-2.1 0,-0.4 -3.2,-0.8 -7,-1 -5.8,-0.2 -7,0 -7,1.3 z" />
  <path
     style="fill:#000000;stroke:none"
     inkscape:connector-curvature="0"
     id="path18"
     d="m 57.109209,80.304427 c -1.1,1.8 0.6,4.9 4.4,8 5,3.9 6.5,3.9 5.7,-0.1 -0.9,-4.6 -4.3,-8.9 -7.1,-8.9 -1.3,0 -2.7,0.5 -3,1 z m 6.4,2.6 c 2.1,2.7 3.6,6.3 2.8,7 -0.9,0.9 -9,-7.3 -8.3,-8.4 1.2,-1.9 3.3,-1.4 5.5,1.4 z" />
  <path
     style="fill:#000000;stroke:none"
     inkscape:connector-curvature="0"
     id="path20"
     d="m 54.309209,100.40443 c -2.6,1.5 -2.1,4.4 1.5,8.5 3.3,3.7 9.7,7.3 13.1,7.4 3.8,0 2.9,-3.1 -2.4,-8.8 -6,-6.5 -9.6,-8.500003 -12.2,-7.1 z m 10.6,7.3 c 3.1,3.6 5.3,6.7 4.8,7 -2.6,1.6 -12.3,-4 -14.6,-8.4 -2.1,-4.1 -1.9,-5 1.3,-5 2.1,0 4,1.5 8.5,6.4 z" />
  <path
     style="fill:#000000;stroke:none"
     inkscape:connector-curvature="0"
     id="path22"
     d="m 90.209209,101.10443 c -0.5,0.8 1,9.8 1.9,11.3 1.2,1.8 2.5,0.8 2.5,-1.9 0,-6.1 -2.7,-12.000003 -4.4,-9.4 z m 3,6.7 c 0.9,6.5 -0.4,5.3 -1.5,-1.4 -0.5,-2.9 -0.4,-4.8 0,-4.4 0.5,0.5 1.2,3.1 1.5,5.8 z" />
  <path
     style="fill:#000000;stroke:none"
     inkscape:connector-curvature="0"
     id="path24"
     d="m 24.309209,120.00443 c -2.6,2.6 1.6,7.6 6,7.1 3.7,-0.4 4.4,-3.9 1.1,-6.2 -2.3,-1.6 -6,-2.1 -7.1,-0.9 z m 6.4,2.2 c 1.9,1.6 2.2,2.2 1.2,3.2 -1.9,1.9 -6.7,-0.1 -7.1,-2.9 -0.4,-2.8 2.6,-3 5.9,-0.3 z" />
  <path
     style="fill:#000000;stroke:none"
     inkscape:connector-curvature="0"
     id="path26"
     d="m 60.509209,122.00443 c -0.1,0.5 -0.1,1.2 0,1.7 0.1,0.4 -0.4,1.5 -1,2.3 -2.4,2.9 4.7,9 8.9,7.5 2.2,-0.8 1.2,-4.2 -1.8,-6.1 -1.6,-1 -2.7,-2.1 -2.4,-2.4 0.4,-0.4 0.1,-1.3 -0.6,-2.2 -1.3,-1.6 -2.9,-2 -3.1,-0.8 z m 3.1,2.4 c 0,0.6 -0.4,0.7 -1,0.4 -0.5,-0.3 -1,-1.1 -1,-1.6 0,-0.6 0.5,-0.7 1,-0.4 0.6,0.3 1,1.1 1,1.6 z m 3.3,4.7 c 2.3,2 2.2,3.2 -0.5,3.2 -2.5,0 -5.8,-2.7 -5.8,-4.7 0,-1.7 3.6,-0.9 6.3,1.5 z" />
  <path
     style="fill:#000000;stroke:none"
     inkscape:connector-curvature="0"
     id="path28"
     d="m 42.909209,139.90443 c -1.2,3.1 4.3,5.6 7.7,3.4 2.3,-1.5 -0.1,-4.4 -3.9,-4.8 -2.2,-0.2 -3.3,0.2 -3.8,1.4 z m 6.6,0.8 c 0.9,1 0.8,1.5 -0.4,2 -2.1,0.7 -4.5,-0.3 -4.5,-2 0,-1.8 3.4,-1.8 4.9,0 z" />
  <path
     style="fill:#000000;stroke:none"
     inkscape:connector-curvature="0"
     id="path30"
     d="m 33.909209,150.90443 c -1.9,0.8 -1.6,2.2 0.7,3.4 2.3,1.2 22.1,4.1 23.3,3.3 4.4,-2.6 -18.7,-9.1 -24,-6.7 z m 17.2,3 c 5.6,1.9 7.8,3.3 4.3,2.8 -1.3,-0.2 -6.1,-0.8 -10.6,-1.4 -9.7,-1.3 -11.4,-1.8 -10.6,-3.2 0.9,-1.4 10.5,-0.3 16.9,1.8 z" />
</svg>
