<?xml version="1.0" encoding="UTF-8" standalone="no"?>
<svg
   xmlns:dc="http://purl.org/dc/elements/1.1/"
   xmlns:cc="http://creativecommons.org/ns#"
   xmlns:rdf="http://www.w3.org/1999/02/22-rdf-syntax-ns#"
   xmlns:svg="http://www.w3.org/2000/svg"
   xmlns="http://www.w3.org/2000/svg"
   xmlns:sodipodi="http://sodipodi.sourceforge.net/DTD/sodipodi-0.dtd"
   xmlns:inkscape="http://www.inkscape.org/namespaces/inkscape"
   version="1.0"
   width="300.000000pt"
   height="300.000000pt"
   viewBox="0 0 300.000000 300.000000"
   preserveAspectRatio="xMidYMid meet"
   id="svg2"
   inkscape:version="0.91 r13725"
   sodipodi:docname="xXBkW7TD8b.svg">
  <defs
     id="defs98" />
  <sodipodi:namedview
     pagecolor="#ffffff"
     bordercolor="#666666"
     borderopacity="1"
     objecttolerance="10"
     gridtolerance="10"
     guidetolerance="10"
     inkscape:pageopacity="0"
     inkscape:pageshadow="2"
     inkscape:window-width="1366"
     inkscape:window-height="742"
     id="namedview96"
     showgrid="false"
     inkscape:zoom="1.4184583"
     inkscape:cx="187.5"
     inkscape:cy="187.5"
     inkscape:window-x="0"
     inkscape:window-y="0"
     inkscape:window-maximized="1"
     inkscape:current-layer="svg2" />
  <metadata
     id="metadata4">
Created by potrace 1.10, written by Peter Selinger 2001-2011
<rdf:RDF>
  <cc:Work
     rdf:about="">
    <dc:format>image/svg+xml</dc:format>
    <dc:type
       rdf:resource="http://purl.org/dc/dcmitype/StillImage" />
  </cc:Work>
</rdf:RDF>
</metadata>
  <path
     style="fill:#149370;stroke:none"
     inkscape:connector-curvature="0"
     id="path44"
     d="m 200,112.3 c -13.8,3.3 -17.7,7.5 -22,23.7 -3.2,12.3 -3.6,22.8 -1.2,32 1.9,7.4 1.9,7.5 0,8.8 -1.1,0.9 -1.7,2 -1.3,3.1 0.3,1 -0.1,2.4 -1,3.1 -1.4,1.1 -1.3,1.4 0.5,2.7 1.9,1.3 2.2,1.2 3.9,-0.8 l 1.8,-2.3 3.5,5.5 c 1.9,3 4.3,6.9 5.3,8.6 1.1,1.8 2.5,3.3 3.2,3.3 0.7,0 3.1,-2.5 5.3,-5.5 4.4,-5.9 5.6,-6.8 4.6,-3.3 -0.4,1.3 -0.9,12.6 -1.2,25.2 -0.4,17.8 -0.3,23.1 0.7,23.7 1.7,1 -0.6,3.9 -3.2,3.9 -2.4,0 -2.4,-1.9 -0.1,-3.6 1.5,-1.1 1.2,-1.2 -2.3,-0.7 -8.2,1.2 -10.5,3.1 -6.4,5.3 5.2,2.8 37.7,2.8 42.9,0 4.1,-2.2 2,-3.6 -8.7,-5.6 -2,-0.4 -2.3,-1.1 -2.3,-4.9 l 0,-4.5 39.3,-0.3 39.2,-0.2 -39.2,-0.3 -39.1,-0.2 -0.6,-11.3 c -0.3,-6.1 -0.5,-12.6 -0.4,-14.2 0.1,-1.7 -0.2,-6.3 -0.6,-10.3 -0.9,-7.7 -0.8,-8 4,-6.2 1.7,0.7 3.1,0.7 3.8,0.1 0.8,-0.7 4.4,-0.7 10.5,-0.1 11.9,1.3 14.1,1.8 16.8,4.3 2.8,2.5 6.6,1.7 9,-1.9 1.6,-2.5 1.6,-2.7 -0.2,-4 -1,-0.8 -2.5,-1.4 -3.2,-1.4 -0.7,0 -1.3,-0.9 -1.3,-2 0,-2.5 -1.5,-2.6 -3.6,-0.2 -1.5,1.8 -1.8,1.8 -8.9,0.1 -6.8,-1.6 -18.6,-3.1 -26.3,-3.3 -2.1,-0.1 -3.1,-0.5 -2.7,-1.3 0.2,-0.7 -0.6,-1.6 -2.1,-1.9 -3.2,-0.8 -4.4,0.3 -1.5,1.4 2,0.7 2.1,1 0.7,2.1 -1.5,1.3 -10,1.2 -12.1,-0.1 -1.6,-1 -7.3,3.8 -9.3,7.8 l -1.8,3.5 -3.2,-4.5 c -2.1,-2.9 -3,-5 -2.5,-6.2 0.4,-1.2 0.3,-1.5 -0.5,-1 -2,1.2 -1.4,3.4 2.5,8.6 3.2,4.3 3.8,4.7 4.8,3.3 1.1,-1.4 1.4,-1.4 3.3,-0.2 2,1.5 2,1.5 -1.2,5.3 l -3.2,3.9 -4.3,-7.2 c -2.3,-3.9 -5,-7.9 -5.9,-8.9 -0.9,-0.9 -1.5,-1.6 -1.3,-1.4 0.3,0.1 1.7,-1 3.2,-2.4 2.5,-2.4 3.4,-2.6 10.5,-2.5 4.3,0.1 8.3,0.6 9.1,1.2 0.9,0.8 1.3,0.8 1.3,0 0,-0.6 0.7,-1.1 1.5,-1.1 0.8,0 1.5,-0.5 1.5,-1 0,-0.6 -0.8,-1 -1.8,-1 -5,0 -12.9,-3.4 -16.4,-7.1 -2.1,-2.1 -4.6,-3.9 -5.6,-3.9 -3.9,0 -6.4,-6.9 -4.2,-11.1 1.2,-2.1 1.3,-2.2 2.6,-0.5 1.1,1.5 2,1.7 5.1,1 2.1,-0.4 4.5,-0.8 5.3,-0.9 0.8,-0.1 2.8,-0.7 4.3,-1.3 1.6,-0.7 4,-0.9 5.5,-0.6 2.4,0.5 2.5,0.4 0.9,-0.6 -1.1,-0.7 -3.2,-1 -4.7,-0.7 -2.5,0.5 -1.9,-0.3 4.4,-6.6 l 7.1,-7.2 4.5,4.6 c 2.5,2.5 5.9,5.5 7.5,6.7 l 3,2.1 -3.1,0.1 c -1.8,0 -4.2,0.9 -5.5,2 -2.9,2.3 -2.3,2.5 1.7,0.5 3.6,-1.7 8.6,-1.4 13.8,0.8 4.8,2.1 5.2,2.1 6,0 1,-2.5 2.9,0 2.8,3.8 -0.1,3.5 -2.6,6.9 -5.2,6.9 -0.9,0 -2.6,1.3 -3.8,3 -2.7,3.5 -5.8,5.8 -11,7.6 -3.2,1.1 -3.3,1.3 -1.1,1.4 3.1,0 11.2,-5 13.5,-8.4 0.9,-1.4 2.4,-2.6 3.4,-2.6 4.4,0 7.4,-8.2 4.6,-12.5 -2,-3 -3,-3.1 -4.2,-0.5 -0.9,2 -1.1,2 -7.3,-1.2 -3.5,-1.8 -9.4,-6.1 -13,-9.6 l -6.6,-6.2 -5.4,5.6 c -10,10.4 -19,15.3 -21.7,11.6 -1.1,-1.6 -1.4,-1.6 -3.3,0.2 -2.3,2.1 -2.7,6.2 -0.9,10 1.1,2.5 3,3.6 7.4,4.5 0.4,0 -0.5,1 -2,2.2 -2.1,1.6 -2.6,2.9 -2.6,6.3 0,4.2 -1.3,6.6 -3.7,6.6 -1.9,0 -1.6,-2.8 0.5,-4.1 1.7,-1.1 1.7,-1.4 -0.1,-6.8 -3.1,-9 -2.8,-21.2 0.8,-34.6 2.6,-9.7 3.4,-11.5 7,-15 5.4,-5.5 12.5,-7.6 24.9,-7.7 12,0 19,2 23.9,6.7 8.1,7.9 12.3,33.6 7.8,48.5 l -2.2,7 -8.7,0.1 c -4.8,0 -9.6,0.5 -10.7,1 -1.4,0.7 -0.6,0.8 2.9,0.4 2.7,-0.3 7.7,-0.5 11.2,-0.5 l 6.3,0 2.3,-7.3 c 2.9,-9.5 3,-23.5 0.1,-32.2 -1.1,-3.3 -2.5,-7.8 -3.1,-10 -2.6,-9.1 -11.9,-14.4 -26.5,-15.1 -5.5,-0.2 -11.4,0.2 -14.7,0.9 z m -4,38.1 c 0,0.2 -0.7,0.7 -1.6,1 -0.8,0.3 -1.2,0.2 -0.9,-0.4 0.6,-1 2.5,-1.4 2.5,-0.6 z m -6,19.1 c 1.5,1.8 1,4.6 -1,5.5 -0.8,0.4 -2.5,1.2 -3.8,1.9 -2.1,1.1 -2.2,1 -2,-2.1 0.3,-5.5 4.1,-8.5 6.8,-5.3 z m 4.6,3.4 c 0.5,0.5 2.5,1.4 4.4,1.9 3.4,1 3.3,1 -2.2,1.1 -5.1,0.1 -5.6,-0.1 -5.1,-1.9 0.6,-2.2 1.4,-2.5 2.9,-1.1 z m 33.5,7.6 c 0.7,0.5 0.3,5.1 -0.6,6.3 -0.1,0.1 -1.9,-0.5 -4,-1.4 -2.1,-0.8 -4.1,-1.2 -4.5,-0.7 -0.5,0.4 -0.3,4.7 0.3,9.5 0.6,4.8 0.8,9.1 0.4,9.4 -1.2,1.2 -10.1,1.6 -13.7,0.7 -3.8,-1.1 -3.8,-1 -2.6,-10.6 0.8,-5.9 -0.3,-7.5 -2.8,-4.2 -0.9,1.2 -1.4,1.1 -3.5,-0.6 l -2.5,-2 3.7,-3.7 c 3.7,-3.6 3.7,-3.6 6.6,-1.9 3.6,2.1 9.1,2.2 11.7,0.1 1.8,-1.5 1.8,-1.5 -0.3,-0.5 -2.5,1.3 -9,1.5 -9.7,0.3 -0.2,-0.4 1.3,-0.6 3.4,-0.4 2.1,0.2 4.7,-0.1 5.7,-0.6 1.8,-1 10.6,-0.8 12.4,0.3 z m 22.7,3.4 c 4,1.1 4.4,1 6.3,-1.1 l 2.1,-2.3 -0.5,2.2 c -0.4,1.8 0.1,2.3 2.4,2.8 3.6,0.8 3.7,2.9 0.4,5.1 -2.4,1.6 -2.7,1.6 -4.8,-0.4 -2.2,-2 -8.2,-3.5 -21.3,-5 -5.7,-0.7 -6.1,-0.8 -5.3,-2.8 0.7,-2.1 0.9,-2.1 8.6,-0.9 4.3,0.7 9.7,1.8 12.1,2.4 z m -72.4,0.2 c -1.1,1.2 -2.1,1.6 -2.7,1 -1.3,-1.3 -0.2,-2.6 2.3,-2.8 2.1,-0.2 2.2,-0.1 0.4,1.8 z m 41.1,22.1 c 0.1,0.2 0.6,7.3 1,15.9 0.8,17.9 -0.2,21 -3.4,10.2 -1.1,-3.8 -2.6,-9.7 -3.4,-13.1 -2.1,-9 -3.3,-9.6 -4.7,-2.6 -1.1,5.5 -4.4,17.6 -5.8,21.2 -0.3,0.9 -0.1,1.3 0.5,0.9 0.6,-0.4 1.6,-2.6 2.2,-5 1.2,-4 1.5,-4.3 4.4,-4.1 2.7,0.1 2.7,0 0.5,-0.3 -1.6,-0.2 -2.8,-1 -2.7,-1.6 0.2,-3.8 2.7,-14 3.1,-12.7 0.3,0.8 1.9,6.6 3.5,12.7 l 3,11.3 -7.1,0.2 -7.1,0.2 7,0.3 c 6.2,0.3 7.2,0.7 8,2.6 1.4,3.1 6.4,3.6 7.2,0.8 0.6,-2.4 1.9,-2.6 6,-1 l 2.8,1.2 -5,1.3 c -9.4,2.6 -42.7,1.2 -39.8,-1.6 1.1,-1.1 7,-2.5 6.1,-1.5 -1.1,1.1 1.1,3.5 3.1,3.5 1,0 2.6,-0.6 3.6,-1.4 1.7,-1.3 1.8,-1.7 0.6,-4 -1.1,-2 -1.3,-5.6 -0.8,-16.8 0.4,-7.9 0.7,-15 0.7,-15.8 0,-1.2 1.5,-1.5 8.1,-1.3 4.5,0.1 8.2,0.3 8.4,0.5 z m 5.5,37 c 0,1.4 -3.7,0.9 -5.1,-0.8 -1,-1.3 -1,-1.7 0.1,-2.4 1.5,-0.9 5,1.4 5,3.2 z" />
  <path
     style="fill:#149370;stroke:none"
     inkscape:connector-curvature="0"
     id="path46"
     d="m 210,186 c 0,0.6 -1.1,1.5 -2.5,2 -2.6,1 -3.2,2.4 -1.5,3.5 0.6,0.3 1,1.6 1,2.9 0,2 0.5,2.3 4.6,2.3 3.9,0 4.5,-0.3 4.1,-1.8 -0.3,-1 0.1,-2.3 0.9,-3 2,-1.7 1.7,-2.8 -1.1,-3.9 -1.4,-0.5 -2.5,-1.4 -2.5,-2 0,-0.5 -0.7,-1 -1.5,-1 -0.8,0 -1.5,0.5 -1.5,1 z m 4.5,3 c 1.8,0 2,1.6 0.4,2.6 -0.6,0.3 -0.9,1.5 -0.6,2.5 0.4,1.5 0.2,1.7 -1.2,1 -1,-0.6 -2.3,-0.5 -3.4,0 -1.4,0.8 -1.7,0.6 -1.7,-1.4 0,-1.2 -0.5,-2.8 -1.2,-3.5 -0.9,-0.9 -0.7,-1.2 0.9,-1.2 1.1,0 2.4,-0.8 2.8,-1.8 0.6,-1.6 0.7,-1.6 1.6,0 0.6,1 1.7,1.8 2.4,1.8 z" />
  <path
     style="fill:#149370;stroke:none"
     inkscape:connector-curvature="0"
     id="path48"
     d="m 100.5,113.9 c -7.8,4 -12,14.5 -7.5,18.6 1.9,1.7 2.8,7.5 1.2,7.5 -1,0 -3.2,14.8 -3.2,21.1 0,5.6 2.9,10.4 7.7,12.7 2,0.9 4.6,2.6 5.8,3.8 1.9,1.9 2,2.3 0.7,4.3 -1.3,1.9 -1.3,2.4 0.2,4 1.4,1.5 1.6,2.9 1,7 -0.4,3.4 -1.1,5.1 -2.1,5.1 -2.2,0 -8.6,-3.6 -11,-6.2 -2.3,-2.4 -6.5,-11 -5.7,-11.7 0.2,-0.2 3.7,-1 7.6,-1.7 l 7.3,-1.3 -6.5,0.5 c -3.6,0.3 -7.5,0.8 -8.7,1.1 -1.7,0.4 -3,-0.4 -5.3,-2.8 -2.8,-3.2 -2.9,-3.5 -1.3,-4.7 1,-0.7 1.7,-1.7 1.6,-2.2 -0.2,-0.5 0.3,-0.7 1,-0.4 1.7,0.6 6.4,-3 5,-3.9 -0.5,-0.3 -3.6,1.2 -6.9,3.3 -6.8,4.6 -11.9,5.2 -14.7,2 -1.7,-2 -6.7,-2.8 -6.7,-1.1 0,0.5 0.8,0.7 1.9,0.4 2.7,-0.7 4.9,2.1 5.7,7.2 0.3,2.5 1.1,4.2 1.6,3.9 0.5,-0.3 0.7,-1.2 0.4,-1.9 -0.9,-2.4 2.2,-0.9 7.6,3.6 5.5,4.7 9.7,7.4 10.4,6.6 0.2,-0.2 -1.6,-1.7 -4.1,-3.2 -2.5,-1.6 -4.5,-3.3 -4.5,-3.7 0,-0.4 -0.7,-0.8 -1.6,-0.8 -0.9,0 -1.4,-0.6 -1.1,-1.3 0.2,-0.6 1.4,-1.1 2.5,-0.9 1.2,0.2 2.2,-0.2 2.2,-0.8 0,-2.4 5,2.8 6.6,6.9 0.9,2.4 3.4,6.1 5.4,8.1 3.6,3.6 3.8,4.1 2.9,7.7 -1.5,6.5 -1.1,12.3 0.7,12.3 1.3,0 1.4,-0.3 0.4,-1.5 -0.8,-1 -1,-3 -0.6,-6.2 1.1,-7.8 1.5,-8.4 3.6,-7.3 1,0.6 3,1 4.4,1 2.3,0 2.5,-0.4 3.1,-6.5 0.4,-3.6 1.1,-6.5 1.6,-6.5 0.5,0 0.9,0.4 0.9,1 0,0.5 0.6,1 1.3,1 0.7,0 2.1,2.6 3.2,5.7 2,5.7 2.1,5.8 5.6,5.5 l 3.5,-0.2 1,6 c 0.7,4 0.7,6.3 0,7 -0.7,0.7 -0.6,1 0.2,1 2,0 2.2,-2.1 0.9,-8.8 -0.8,-3.4 -1,-6.2 -0.6,-6.2 0.4,0 2.1,-1.1 3.7,-2.5 2.9,-2.4 2.9,-2.4 4.7,-0.5 4,4.5 9.5,0.8 9.5,-6.4 0,-4.2 0.1,-4.4 3.4,-5 5.2,-1 8.6,-4.1 8.6,-8 0,-3.6 -1.2,-5.4 -5.1,-7.9 -2.5,-1.5 -3,-1.5 -8,0.3 -3,1.1 -6.6,2.9 -8.1,4 -1.5,1.1 -3,2 -3.2,2 -1.2,0 6,-8.9 7.5,-9.5 2.3,-0.8 4.3,-5.9 3.5,-8.9 -0.5,-2 0,-2.6 2.9,-4 4.5,-2.2 6.5,-5.2 6.5,-9.9 0,-5.3 -2.4,-10.5 -7.2,-15.4 l -4.1,-4.2 2.6,-0.7 c 3.2,-0.7 3.1,-0.6 1.1,-4.5 -1.8,-3.6 -3.3,-3.4 -5.5,0.8 -1.5,3 -1.6,3 -4,1.3 -9.2,-6.4 -25.8,-9 -33.4,-5.1 z m 19.4,0.6 c 8.6,2.2 16.1,6.3 16.1,8.7 0,1.4 0.5,1.8 1.6,1.4 2.5,-1 7,3 9.8,8.6 4,8.1 3.1,14.5 -2.5,16.9 -2.7,1.1 -4,0.6 -16.7,-5.4 -7.5,-3.7 -14.9,-6.9 -16.4,-7.3 -3.5,-0.8 -3.5,-1.7 -0.2,-3.3 2.1,-0.9 2.4,-1.4 1.4,-2.6 -2,-2.4 -5.9,-1.8 -9.2,1.5 -3.4,3.5 -5.7,3.3 -9.5,-0.8 -3,-3.2 -2.9,-5.5 0.3,-11 4.4,-7.5 13.3,-9.9 25.3,-6.7 z m 22.5,3.1 c 0.4,0.9 0.5,1.8 0.4,1.8 -0.2,0.1 -1.5,1 -3,1.9 l -2.8,1.7 1.1,-2.6 c 1.8,-4.9 3.2,-5.8 4.3,-2.8 z M 112,131.8 c 0,0.5 -1.1,1.4 -2.5,2 -1.4,0.6 -2.5,1.6 -2.5,2.2 0,1.1 6.8,4.5 8.2,4.2 0.8,-0.2 25.8,11.5 25.8,12 0,0.2 -2.2,0.3 -4.8,0.3 -4.1,0 -5.7,-0.6 -10.3,-4 -7.6,-5.7 -10.9,-7.7 -10.9,-6.6 0,0.5 0.6,1.1 1.3,1.4 2.7,1.1 15.2,10.9 15.2,12 0,1.4 -4.5,3.8 -5.7,3 -0.5,-0.2 -0.2,-1.6 0.6,-2.9 2.2,-3.3 1.9,-4.4 -0.4,-1.5 -2.4,2.8 -2.5,4.7 -0.5,5.5 2.2,0.8 4.6,-0.3 7.7,-3.6 3.2,-3.3 5.3,-3.6 6.8,-0.8 1.2,2.3 -1.1,9 -3.2,9 -0.7,0.1 -2.2,1.5 -3.3,3.3 -2.6,4 -7.7,7.5 -12.4,8.2 -2,0.4 -4.8,1.3 -6.3,2.1 -1.4,0.8 -3.7,1.4 -5.1,1.4 -2.4,0 -5.7,-2.3 -5.7,-3.9 0,-0.4 -1.5,-1.2 -3.3,-1.9 -4.3,-1.5 -7.5,-5 -8.3,-8.9 -0.4,-2.3 -0.2,-3.2 1.1,-3.7 4.1,-1.5 6.2,4.3 2.3,6.2 -1.5,0.7 -1.8,1.1 -0.7,1.1 3.9,0.2 5.4,-6 1.8,-7.9 -1.1,-0.7 -2.7,-0.9 -3.5,-0.6 -1.7,0.6 -1.7,0.1 -0.3,-8.3 1.8,-11.8 1.4,-11.1 6.2,-11.1 2.4,0 4.7,0.4 5.3,0.9 0.5,0.6 2.9,1.2 5.4,1.5 l 4.5,0.6 -5,-1.5 c -7.7,-2.2 -9.2,-6 -3.6,-9 2.9,-1.6 6.1,-1.9 6.1,-0.7 z m -12.2,4.8 c 3.2,0.9 2.7,2.4 -0.8,2.4 -2,0 -3,-0.5 -3,-1.5 0,-1.7 0.4,-1.8 3.8,-0.9 z m 45.7,32.4 c -0.3,0.5 -0.1,1 0.4,1 0.6,0 1.1,-0.4 1.1,-1 0,-0.5 0.8,-0.7 1.8,-0.3 7.3,2.6 7,11.2 -0.5,13.2 -3.4,1 -6.4,0.4 -3.5,-0.6 1.7,-0.6 1.5,-2.3 -0.4,-3.7 -1.9,-1.4 -0.9,-4.3 1.7,-5.1 1,-0.4 1.9,-1.1 1.9,-1.6 0,-0.6 -0.7,-0.6 -1.9,0 -2.3,1.3 -3.5,0.3 -2,-1.6 1.3,-1.5 2.3,-1.8 1.4,-0.3 z m -2.8,1.5 c 0,1.1 -1.1,1.5 -3.6,1.4 l -3.6,-0.1 3,-1.3 c 3.9,-1.8 4.2,-1.8 4.2,0 z M 80,175.1 c 1.2,2.1 0,3.2 -2,1.8 -1.8,-1.1 -3,-1.2 -2.9,-0.2 0.3,2 -0.2,2.7 -1,1.4 -1.2,-1.9 1.6,-6.2 3.5,-5.4 0.8,0.3 1.9,1.4 2.4,2.4 z m -8.6,-0.6 c -2.5,1.9 -3.4,1.9 -3.4,0 0,-1 1,-1.5 2.7,-1.5 2.6,0 2.6,0.1 0.7,1.5 z m 65.5,2.5 c 2.4,0 2.8,0.3 2.4,2.4 -0.4,1.8 0,2.6 1.7,3.1 2,0.6 1.8,0.9 -2,2.6 -8.2,3.7 -12.7,1.9 -11.7,-4.6 0.3,-1.9 0.1,-3.7 -0.5,-4.1 -0.6,-0.4 -0.5,-1 0.3,-1.5 2.2,-1.3 2.9,-1.1 2.2,0.8 -0.4,1.4 0,1.3 1.8,-0.5 2.4,-2.2 2.4,-2.2 2.7,-0.2 0.3,1.4 1.1,2 3.1,2 z m 4.9,-2.8 c -0.5,1.4 -6.8,2.2 -6.8,0.9 0,-1.4 1.3,-2.1 4.3,-2.1 1.8,0 2.7,0.4 2.5,1.2 z m -16.5,2.4 c 1.2,0.4 1.3,1.1 0.4,3.4 -0.9,2.2 -0.7,3.3 0.6,5.4 1,1.4 2.6,2.6 3.7,2.6 2.5,0 2.5,1.1 -0.1,4.4 -2.5,3.2 -6.9,5.6 -10.3,5.6 -2,0 -2.7,-0.8 -4,-4.7 -1.4,-4.2 -1.4,-4.8 -0.1,-5.6 2.1,-1.1 1.9,-4.1 -0.5,-6.2 -1.9,-1.7 -1.9,-1.9 -0.2,-3.1 1,-0.7 3.4,-1.4 5.3,-1.7 1.9,-0.2 3.5,-0.5 3.6,-0.5 0.1,-0.1 0.8,0.1 1.6,0.4 z m 17.2,1.4 c -0.3,0.5 0.1,1 1,1 1.5,0 1.5,0.1 0,1.6 -1.2,1.2 -1.9,1.4 -2.7,0.6 -1.2,-1.2 -0.4,-4.2 1.2,-4.2 0.6,0 0.8,0.4 0.5,1 z m -31.6,5.2 c 0.6,1.7 1.4,2.9 1.7,2.5 0.3,-0.3 0,-1.5 -0.6,-2.7 -0.6,-1.2 -1,-2.4 -0.7,-2.6 0.8,-0.8 4.7,4.7 4.1,5.7 -1.1,1.8 -3.5,0.8 -5.4,-2.4 -1.8,-2.8 -2,-2.9 -2,-1 0,1.3 -0.4,2.3 -1,2.3 -1.4,0 -1.3,-2.3 0.2,-3.8 1.8,-1.8 2.5,-1.5 3.7,2 z m 29.1,11 c -2.7,2.2 -3,2.2 -5.7,-0.1 -2.5,-2.1 -2.1,-6.1 0.6,-6.1 0.9,-0.1 2.7,-0.7 4.1,-1.5 2.4,-1.3 2.5,-1.3 2.8,2.3 0.3,2.8 -0.2,4.1 -1.8,5.4 z" />
  <path
     style="fill:#149370;stroke:none"
     inkscape:connector-curvature="0"
     id="path50"
     d="m 97.7,150.7 c -1.4,1.3 -0.6,1.8 2.8,1.9 3.7,0.1 4.6,-1 1.9,-2 -2,-0.8 -3.9,-0.8 -4.7,0.1 z" />
  <path
     style="fill:#149370;stroke:none"
     inkscape:connector-curvature="0"
     id="path52"
     d="m 113.3,150.7 c -0.7,0.2 -1.3,0.9 -1.3,1.5 0,0.5 0.6,0.8 1.3,0.5 0.6,-0.2 2,0 2.9,0.4 1,0.5 1.9,0.5 2.3,0 0.4,-0.8 -2.6,-3.3 -3.7,-3 -0.2,0 -0.9,0.3 -1.5,0.6 z" />
  <path
     style="fill:#149370;stroke:none"
     inkscape:connector-curvature="0"
     id="path54"
     d="m 98.7,156.3 c -0.3,0.8 -0.1,2 0.4,2.8 0.8,1.2 1,1.2 1.8,0 1,-1.5 0.4,-4.1 -0.9,-4.1 -0.4,0 -1,0.6 -1.3,1.3 z" />
  <path
     style="fill:#149370;stroke:none"
     inkscape:connector-curvature="0"
     id="path56"
     d="m 113,158.9 c 0,1.1 0.4,2.2 0.9,2.5 1.1,0.7 2.3,-2.2 1.5,-3.5 -0.9,-1.6 -2.4,-1 -2.4,1 z" />
  <path
     style="fill:#149370;stroke:none"
     inkscape:connector-curvature="0"
     id="path58"
     d="m 135.6,158.6 c -1.8,1.7 -2.1,2.8 -0.6,1.9 0.6,-0.3 1,-0.2 1,0.4 0,0.5 -0.6,1.2 -1.2,1.4 -0.9,0.4 -0.9,0.6 -0.1,0.6 0.6,0.1 1.8,-1.3 2.7,-2.9 1.6,-3.2 0.7,-4 -1.8,-1.4 z" />
  <path
     style="fill:#149370;stroke:none"
     inkscape:connector-curvature="0"
     id="path60"
     d="m 116.2,164.2 c -2.8,2.8 -0.7,7.8 3.3,7.8 1.2,0 2.6,-0.5 3.3,-1.2 0.7,-0.7 1.2,-2.1 1.2,-3.3 0,-1.2 -0.5,-2.6 -1.2,-3.3 -0.7,-0.7 -2.1,-1.2 -3.3,-1.2 -1.2,0 -2.6,0.5 -3.3,1.2 z m 6.2,2 c 0.8,1.4 0.7,2.1 -0.6,3.4 -3,3 -7.5,-0.9 -4.8,-4.2 1.6,-1.8 3.9,-1.5 5.4,0.8 z" />
  <path
     style="fill:#149370;stroke:none"
     inkscape:connector-curvature="0"
     id="path62"
     d="m 103.9,170.1 c 1.5,1.3 3.1,1.7 4.5,1.3 3.8,-1.1 4,-2.3 0.4,-1.8 -2.1,0.4 -3.8,0.2 -4.2,-0.5 -0.4,-0.6 -1.3,-1.1 -1.9,-1.1 -0.7,0.1 -0.1,1 1.2,2.1 z" />
  <path
     style="fill:#149370;stroke:none"
     inkscape:connector-curvature="0"
     id="path64"
     d="m 106,176.2 c 1,1 2.6,1.4 4.5,1.1 3.8,-0.6 4.6,-1.3 1.4,-1.3 -1.3,0 -3.5,-0.3 -4.8,-0.7 -2.2,-0.6 -2.3,-0.5 -1.1,0.9 z" />
  <path
     style="fill:#149370;stroke:none"
     inkscape:connector-curvature="0"
     id="path66"
     d="m 147.6,174.5 c -0.3,0.8 -0.2,2.4 0.2,3.6 l 0.8,2 1.8,-2 c 1.5,-1.7 1.6,-2.3 0.6,-3.6 -1.6,-1.9 -2.6,-1.9 -3.4,0 z m 3.4,1.3 c 0,1.3 -1.2,2.2 -2.2,1.6 -1,-0.6 -0.1,-2.4 1.3,-2.4 0.5,0 0.9,0.4 0.9,0.8 z" />
  <path
     style="fill:#149370;stroke:none"
     inkscape:connector-curvature="0"
     id="path68"
     d="m 131,180.1 c 0,0.5 -0.4,0.7 -1,0.4 -0.5,-0.3 -1,-0.1 -1,0.5 0,0.7 0.8,0.9 2,0.5 1.2,-0.4 2,-0.2 2,0.5 0,0.6 -0.4,0.9 -0.9,0.5 -0.5,-0.3 -1.2,-0.1 -1.6,0.5 -0.3,0.5 0.3,1 1.3,1 2.4,0 3.8,-3 2,-4.2 -1.8,-1.1 -2.8,-1 -2.8,0.3 z" />
  <path
     style="fill:#149370;stroke:none"
     inkscape:connector-curvature="0"
     id="path70"
     d="m 252.5,125.2 c -0.2,0.7 -0.3,2.2 -0.2,3.3 0.1,1.5 -0.5,2.1 -2.6,2.3 -3.9,0.5 -5.7,4.4 -3.2,7.2 1,1.1 2.4,2 3,2 0.7,0 1.5,1.3 1.9,3 0.5,2.5 1,3 3.5,3 2.5,0 3.7,-1 7.1,-5.5 2.2,-3 4,-5.9 4,-6.5 0,-0.5 -1.4,-1 -3,-1 -3.3,0 -8,-3.8 -8,-6.4 0,-2 -1.9,-3.1 -2.5,-1.4 z m 9.3,8.6 3.2,0.7 -3.8,5 c -4.3,5.7 -8.4,6.9 -9,2.6 -0.2,-1.3 0.2,-2.7 0.9,-3.2 1.8,-1.1 5.2,0.9 4.5,2.7 -1,2.5 1.1,0.6 3.1,-2.8 l 1.9,-3.3 -4.3,-2.1 c -3.6,-1.8 -4.3,-1.9 -4.3,-0.6 0,0.8 -0.2,1.3 -0.5,1 -0.4,-0.3 -0.3,-1.7 0,-3.1 l 0.7,-2.6 2.2,2.5 c 1.2,1.4 3.6,2.9 5.4,3.2 z m -9.9,-0.4 c 1.7,2 0.3,4.6 -2.5,4.6 -1.8,0 -2.4,-0.5 -2.4,-2.3 0,-3.8 2.6,-5 4.9,-2.3 z m 8,4.7 c -0.9,1.8 -1.1,1.8 -2.6,0.4 -0.8,-0.9 -2.2,-1.4 -3,-1.1 -0.8,0.3 -1.2,0.2 -1,-0.2 0.2,-0.4 0.7,-1.5 1,-2.4 0.5,-1.6 0.9,-1.6 3.6,-0.2 2.6,1.3 2.9,1.8 2,3.5 z" />
  <path
     style="fill:#149370;stroke:none"
     inkscape:connector-curvature="0"
     id="path72"
     d="m 236.8,156.2 c 0,0.7 -0.2,1.7 -0.2,2.3 -0.1,0.5 -0.5,1.6 -0.9,2.2 -0.5,0.9 -0.3,1.1 0.6,0.7 1.6,-0.6 2.9,-6.4 1.5,-6.4 -0.4,0 -0.9,0.6 -1,1.2 z" />
  <path
     style="fill:#149370;stroke:none"
     inkscape:connector-curvature="0"
     id="path74"
     d="m 258.4,157.6 c 1.4,6.4 1.8,10.4 1.1,12.1 -0.7,1.6 -0.8,1.5 -1.4,-0.6 -1,-3.8 -3.6,-4.9 -6,-2.7 -2.6,2.4 -2.7,5 -0.1,7.6 2.7,2.7 4.2,2.5 8,-0.7 3,-2.5 3.2,-3 2.8,-7.9 -0.4,-5 -0.4,-5.2 2,-5.1 3.7,0.3 3.7,-1.7 0,-2.9 -1.8,-0.6 -4.2,-1.5 -5.2,-1.9 -1.7,-0.7 -1.8,-0.5 -1.2,2.1 z m 7.6,1.8 c 0.8,0.3 0.2,0.4 -1.4,0 -1.8,-0.3 -3.3,0 -3.8,0.8 -0.7,0.9 -0.8,0.8 -0.4,-0.5 0.3,-0.9 0.1,-1.7 -0.4,-1.7 -0.6,0 -1,-0.5 -1,-1 0,-0.6 1.1,-0.5 2.8,0.3 1.5,0.8 3.4,1.7 4.2,2.1 z m -5,11.5 c -0.6,1.1 -2,2.6 -3.3,3.2 -1.9,1 -1.9,0.8 0.6,-1.8 1.9,-2 2.7,-4.1 2.9,-6.9 l 0.1,-3.9 0.4,3.7 c 0.2,2 -0.1,4.6 -0.7,5.7 z m -4,-1.5 c 0,1.3 -0.7,2.9 -1.6,3.6 -2.1,1.8 -4.9,-0.9 -3.9,-3.9 1,-3.1 5.5,-2.9 5.5,0.3 z" />
  <path
     style="fill:#149370;stroke:none"
     inkscape:connector-curvature="0"
     id="path76"
     d="m 181.9,156.9 c 0.8,0.5 1.1,1.6 0.8,2.4 -0.6,1.6 1,3.7 2.8,3.7 0.5,0 0.2,-0.5 -0.9,-1.1 -1.3,-0.8 -1.5,-1.4 -0.7,-1.8 1.6,-1 0.3,-4.1 -1.8,-4.1 -1.3,0 -1.3,0.2 -0.2,0.9 z" />
  <path
     style="fill:#149370;stroke:none"
     inkscape:connector-curvature="0"
     id="path78"
     d="m 199.8,157.1 c -1,0.5 -1.8,1.5 -1.8,2.1 0,0.7 0.5,0.6 1.5,-0.2 0.8,-0.7 2.6,-1 4,-0.8 2,0.4 2.3,0.3 1.4,-0.8 -1.3,-1.6 -2.7,-1.7 -5.1,-0.3 z" />
  <path
     style="fill:#149370;stroke:none"
     inkscape:connector-curvature="0"
     id="path80"
     d="m 217.1,157.4 c -1,1.2 -0.9,1.3 0.7,0.9 1.1,-0.2 2.9,0 4.1,0.6 2.5,1.4 2.7,0.8 0.5,-1.3 -1.9,-2 -3.8,-2 -5.3,-0.2 z" />
  <path
     style="fill:#149370;stroke:none"
     inkscape:connector-curvature="0"
     id="path82"
     d="m 190.3,160.7 c -1.8,0.7 -1.6,3 0.3,3.7 2.6,1 5.1,0.7 6.3,-0.7 2.1,-2.6 -2.6,-4.7 -6.6,-3 z m 5.2,1.2 c 0.3,0.5 0.1,1.2 -0.5,1.6 -1.4,0.9 -5.2,-0.4 -4.5,-1.6 0.8,-1.2 4.2,-1.2 5,0 z" />
  <path
     style="fill:#149370;stroke:none"
     inkscape:connector-curvature="0"
     id="path84"
     d="m 225.3,160.7 c -1.8,0.7 -1.6,3 0.3,3.7 2.6,1 5.1,0.7 6.3,-0.7 2.1,-2.6 -2.6,-4.7 -6.6,-3 z m 5.2,1.3 c 0.8,1.3 -2,2.4 -4.2,1.6 -1.5,-0.6 -1.5,-0.8 -0.3,-1.6 2,-1.3 3.7,-1.2 4.5,0 z" />
  <path
     style="fill:#149370;stroke:none"
     inkscape:connector-curvature="0"
     id="path86"
     d="m 38,162 c 0,0.5 -1,1 -2.1,1 -2.1,0 -2.1,0.3 -1.5,9.7 1.5,21.8 2.4,28.3 4.2,28.3 1.8,0 1.8,2.2 0,10.2 -0.8,3.5 -2,8.9 -2.6,12 l -1.1,5.8 -17.7,0.3 -17.7,0.2 17.8,0.3 c 15.8,0.2 17.7,0.4 17.7,1.9 0,2.8 0.8,1 1.4,-3.2 0.4,-2.2 0.8,-4.7 1.1,-5.5 0.2,-0.8 0.6,-2.6 0.9,-4 0.2,-1.4 2,-10.7 4,-20.6 1.9,-10 3.8,-20.5 4.2,-23.3 0.6,-4.7 2.5,-7.4 4,-5.8 0.3,0.3 0.1,3.8 -0.5,7.9 -3.9,26.5 -4.8,32.7 -5.7,37.1 -0.2,1.2 -0.6,3.7 -0.9,5.7 -0.9,5.7 -1.3,7.9 -2,9 -0.4,0.6 4.3,1 13.3,1 13.2,0 14,0.1 14.5,2 0.4,1.6 0.1,2 -1.1,1.6 -2.7,-0.9 -24.9,-1.2 -25.8,-0.4 -0.4,0.4 -1.2,4.3 -1.9,8.5 -0.9,5.8 -0.9,8 -0.1,8.5 1.7,1.1 26.2,0.9 33.4,-0.2 17.9,-2.9 20.7,-9.5 6,-13.8 -3.9,-1.2 -6,-2.4 -6.7,-3.9 l -1,-2.2 15.2,-0.3 15.2,-0.3 1,4 c 0.9,3.3 1.6,4.1 3.8,4.3 1.9,0.2 2.7,0.9 2.7,2.4 0,1.8 -0.5,2 -5,1.6 -2.8,-0.1 -5,0 -5,0.4 0,0.5 2.5,0.8 5.5,0.8 4.8,0 5.5,-0.2 5.5,-2 0,-1.4 0.7,-2 2.1,-2 1.7,0 1.9,0.3 1,1.3 -1.6,2 -0.3,2.7 5.1,2.7 3.8,0 4.8,-0.3 4.8,-1.6 0,-1.3 0.7,-1.5 3.6,-1.1 3.7,0.6 5.1,1.3 4.3,2.2 -0.3,0.2 -4.8,1 -10.1,1.6 -7.2,0.9 -11.7,0.9 -18.4,0.1 -8.7,-1.2 -13.3,-3 -8.3,-3.4 1.3,-0.1 3.3,-0.3 4.4,-0.4 1.1,-0.1 2.6,-0.2 3.3,-0.3 0.6,-0.1 1.2,-0.5 1.2,-0.9 0,-1.1 -8.9,0.1 -11.3,1.4 -7.6,4.3 26.8,7.3 38.1,3.3 3.9,-1.3 4.1,-2.6 0.6,-3.9 -3.9,-1.5 -8.4,-1.3 -8.4,0.5 0,1.1 -1.2,1.5 -4.7,1.5 -4.6,0 -4.6,0 -2.8,-2 1,-1.1 2.6,-2 3.4,-1.9 5.1,0.5 5.2,0.3 4.7,-6.9 -0.3,-3.7 -0.5,-9.5 -0.5,-13 l -0.1,-6.2 -12,0 c -9,0 -12,0.3 -12,1.2 0.1,0.7 0.7,4 1.5,7.3 0.8,3.3 1.5,6.6 1.5,7.3 0,1 -3.3,1.2 -14.6,1 L 72.8,228.5 70,221 c -4.7,-12.8 -4.6,-12.4 -1.7,-11.6 2.4,0.6 2.6,0.4 2.3,-2.1 -0.2,-1.6 -0.7,-7.9 -1.1,-14.1 -0.4,-6.1 -1,-11.2 -1.4,-11.2 -0.3,0 -0.2,5.7 0.2,12.6 0.5,6.9 0.7,12.8 0.3,13.1 -0.3,0.3 -1.3,0.2 -2.3,-0.2 -1.7,-0.8 -1.7,-0.8 0,-1.2 1.5,-0.4 1.6,-1.3 1.1,-7.6 -1.4,-18.1 -2.4,-26.1 -3.1,-26.8 -0.4,-0.4 -3.2,-1.1 -6.2,-1.5 -4.9,-0.6 -5.3,-0.5 -4.8,1.2 0.3,1 2.5,8.6 4.8,16.9 2.3,8.2 4.9,15.6 5.7,16.2 1.3,1.1 1.3,1.3 0.1,1.3 -1,0.1 -0.9,0.5 0.5,1.5 1.1,0.8 1.5,1.5 0.9,1.5 -1.1,0 -0.6,1.6 4.4,14.5 0.8,2.2 1.7,5.2 1.9,6.6 0.2,1.5 1.3,4.2 2.4,6.2 1.9,3.2 1.9,3.5 0.4,4.1 -1,0.4 -2.1,0.1 -2.6,-0.6 -0.8,-1.4 -0.9,-1.6 -1.3,-6.7 -0.2,-1.8 -0.7,-3.6 -1.2,-4 -1.3,-0.8 -3.4,-7.1 -2.8,-8.1 0.3,-0.5 0.1,-1 -0.3,-1.2 -0.5,-0.1 -1.5,-2.3 -2.3,-4.8 -1.2,-4 -1.8,-4.6 -5.1,-5.4 -2.1,-0.5 -3.8,-1.3 -3.8,-1.7 0,-0.5 -0.6,-0.6 -1.3,-0.3 -0.8,0.3 -2.6,0 -4.1,-0.6 -2.1,-0.7 -2.7,-1.6 -2.4,-3.3 0.2,-1.2 0.9,-2.1 1.6,-1.9 0.9,0.1 1.2,-2.3 1.3,-9 0,-5.1 0.4,-11.1 0.8,-13.3 0.8,-3.5 0.9,-3.1 1,3.6 0,4.2 0.4,10.3 0.7,13.7 0.7,6 0.7,6 4.4,7 l 3.7,0.9 -2.3,-8.6 c -1.3,-4.7 -3.1,-10.6 -3.9,-13.1 -0.9,-2.4 -1.8,-6.8 -2.2,-9.7 -0.5,-5 -0.8,-5.3 -3.2,-5.1 -1.4,0 -4.4,-0.2 -6.7,-0.6 -3.7,-0.6 -4,-1 -3.6,-3.2 0.3,-1.5 0.9,-2.1 1.6,-1.7 0.6,0.4 1.9,0.8 2.9,0.9 0.9,0.1 1.9,0.3 2.2,0.4 0.3,0.1 1.3,0.3 2.3,0.4 0.9,0.1 2.2,0.4 2.7,0.7 0.6,0.4 1.9,0.5 3,0.3 1.1,-0.2 2.7,-0.1 3.5,0.3 2.6,1.1 4,1.2 4,0.2 0,-0.5 -0.1,-0.9 -0.3,-0.9 -0.2,0 -5.2,-0.9 -11.2,-2 C 36.7,160.6 38,160.8 38,162 Z m 0,3 c 0,0.5 -0.4,1 -1,1 -0.5,0 -0.7,1.2 -0.5,2.7 0.3,1.6 0.9,8.8 1.5,16.2 0.6,8.6 1.4,13.8 2.2,14.2 0.7,0.5 1,1 0.7,1.3 -0.2,0.3 -1,0.1 -1.8,-0.3 -0.8,-0.5 -1.6,-4.6 -2.1,-11.6 -0.5,-6 -1.2,-13.9 -1.6,-17.7 -0.6,-5.9 -0.4,-6.8 1,-6.8 0.9,0 1.6,0.4 1.6,1 z m 7.8,4.6 C 46.4,170 41.6,198 40.9,198 40.4,198 38,174.6 38,169.8 c 0,-1.4 0.7,-1.6 3.8,-1.1 2,0.3 3.9,0.7 4,0.9 z m 18,2.9 c 0.1,0.1 0.7,6.2 1.2,13.6 0.6,7.4 1.2,14.6 1.5,16.1 0.5,2.9 -0.8,3.7 -2.2,1.5 -0.4,-0.6 -2.8,-8.3 -5.4,-16.9 l -4.5,-15.7 4.5,0.6 c 2.5,0.3 4.7,0.7 4.9,0.8 z M 59,202.6 c 0,0.1 -1.1,-0.1 -2.5,-0.4 -1.9,-0.3 -2.5,-1.1 -2.5,-3.1 0,-1.4 -0.2,-5.8 -0.5,-9.6 l -0.6,-7 3,10 c 1.7,5.5 3,10.1 3.1,10.1 z m -10.3,-3.9 c -0.3,1 -0.5,0.4 -0.5,-1.2 0,-1.7 0.2,-2.4 0.5,-1.8 0.2,0.7 0.2,2.1 0,3 z m 15.2,19.9 c 1.2,4 2.4,8 2.7,8.8 0.5,1.4 -0.9,1.6 -11,1.6 -10.4,0 -11.6,-0.2 -11.6,-1.8 0.1,-1.3 2.7,-19.3 3,-19.8 0,-0.1 3.3,0.8 7.4,2 l 7.4,2 2.1,7.2 z M 122,225 c 0,11.2 -0.1,12 -1.9,12 -1.6,0 -2.1,-1 -2.6,-5.8 -1.3,-12.5 -1.2,-12.2 -5.4,-12.2 l -3.8,0 0.5,9.1 c 0.5,8.4 0.4,9.1 -1.3,8.8 -1.5,-0.3 -2.5,-2.9 -4.6,-11.9 -1.6,-6.3 -2.8,-11.6 -2.9,-11.8 0,-0.1 5,-0.2 11,-0.2 l 11,0 0,12 z m -6.9,-4.1 c 0,0.3 0.4,4.3 0.7,8.8 l 0.7,8.3 -3.2,0 c -3.2,0 -3.3,-0.1 -3.3,-4 0,-3.7 0.2,-4 2.8,-4.1 l 2.7,-0.2 -2.7,-0.4 c -2.6,-0.4 -2.8,-0.8 -2.8,-4.7 0,-4 0.2,-4.4 2.5,-4.4 1.4,0 2.5,0.3 2.6,0.7 z m -48.6,14 c 2.2,0.5 3.2,1.4 3.9,3.9 0.9,3.2 2.8,4 5.5,2.3 0.8,-0.5 1.1,-1.6 0.6,-3 -0.6,-2 -0.5,-2 3.4,-0.6 5.9,2.1 8.1,3.4 8.1,5 0,2.2 -5.5,4.6 -13.9,6.1 -8.5,1.5 -29.9,1.8 -32,0.5 -1,-0.7 -1.2,-2.1 -0.7,-5.7 1.5,-10.2 0.5,-9.4 12,-9.3 5.5,0.1 11.4,0.4 13.1,0.8 z" />
  <path
     style="fill:#149370;stroke:none"
     inkscape:connector-curvature="0"
     id="path88"
     d="m 201.7,167 c 0.8,3 6.1,7 9.2,7 3.4,0 6.7,-2.3 8.6,-6.1 l 1.6,-2.9 -10,0 c -9.4,0 -9.9,0.1 -9.4,2 z m 16.7,0.7 c -0.4,1.5 -1.7,1.8 -7.2,1.8 -6.1,0 -8.1,-0.7 -8.2,-2.8 0,-0.4 3.6,-0.7 7.9,-0.7 7,0 7.9,0.2 7.5,1.7 z m -3.8,3.8 c -2.1,1.6 -3.6,1.8 -6,0.9 -3.1,-1.2 -1.5,-2.4 3.2,-2.4 4.3,0.1 4.6,0.2 2.8,1.5 z" />
  <path
     style="fill:#149370;stroke:none"
     inkscape:connector-curvature="0"
     id="path90"
     d="m 48.6,171.1 c -0.2,0.8 -2,12 -4.1,24.9 -2,12.9 -4.3,26.6 -5,30.5 -0.8,3.8 -2.1,11.1 -3,16.2 -1.7,8.9 -1.8,9.2 -3.9,8.2 -2,-1 -2,-1 -0.2,0.5 2.7,2.1 3.5,2 4.1,-0.7 0.8,-4 11.5,-67 12.4,-73.7 0.8,-6 0.7,-9.2 -0.3,-5.9 z" />
  <path
     style="fill:#149370;stroke:none"
     inkscape:connector-curvature="0"
     id="path92"
     d="m 142.8,229.7 c 10.5,0.2 27.9,0.2 38.5,0 10.5,-0.1 1.9,-0.2 -19.3,-0.2 -21.2,0 -29.8,0.1 -19.2,0.2 z" />
  <path
     style="fill:#149370;stroke:none"
     inkscape:connector-curvature="0"
     id="path94"
     d="m 24,235.6 c -2.5,0.9 -5.4,2.4 -6.4,3.5 -2,1.8 -2,1.9 0.3,4.3 2.3,2.4 9.7,5.6 13.1,5.6 1.3,0 2,-1.7 3.2,-7.5 l 1.4,-7.5 -3.5,0 c -2,0.1 -5.6,0.8 -8.1,1.6 z m 9.6,2.1 c -0.3,1.6 -0.8,4.5 -1.2,6.5 -0.6,3.5 -0.8,3.7 -3.3,3.2 -5,-1.2 -11.1,-4.3 -11.1,-5.7 0,-0.8 0.6,-2 1.4,-2.6 1.7,-1.4 9.3,-3.9 12.4,-4 2.1,-0.1 2.3,0.3 1.8,2.6 z" />
</svg>
